<?xml version="1.0" encoding="utf-8"?>
<!-- Generator: Adobe Illustrator 16.0.0, SVG Export Plug-In . SVG Version: 6.00 Build 0)  -->
<!DOCTYPE svg PUBLIC "-//W3C//DTD SVG 1.1//EN" "http://www.w3.org/Graphics/SVG/1.1/DTD/svg11.dtd">
<svg version="1.1" id="Layer_1" xmlns="http://www.w3.org/2000/svg" xmlns:xlink="http://www.w3.org/1999/xlink" x="0px" y="0px"
	 width="1861px" height="356px" viewBox="0 0 1861 356" enable-background="new 0 0 1861 356" xml:space="preserve">
<g>
	<g>
		<path fill="#F6BD3A" d="M144.25,191.637l48.016-27.866l47.419,27.866l-47.419,27.268l-48.016-26.676V191.637z"/>
		<path fill="#F6BD3A" d="M0.199,109.236L192.266,0.162l142.862,81.214l-47.423,82.396l-95.439-54.535L48.214,191.039L0.199,109.236
			z"/>
		<path fill="#EB8C23" d="M144.25,300.711v-54.539l47.419-27.268l48.016-27.268v54.535l-47.419,27.271v54.535l-48.016,27.859
			V300.711L144.25,300.711z M144.25,191.637l-48.02-27.268l-48.016,26.67v-54.536l144.051-81.807v109.074L144.25,191.637z
			 M287.112,136.503v-27.268l48.016-27.86l0.593,54.536l-48.016,27.859L287.112,136.503z"/>
		<path fill="#E35A2B" d="M96.23,326.789v-162.42l47.427-26.676l0.593,53.944l48.016,26.674v55.133l-48.016-25.494v107.889
			L96.23,326.789L96.23,326.789z M23.91,176.815L0.199,162.586v-53.351l48.016,27.268v54.536L23.91,176.815L23.91,176.815z
			 M192.266,109.236V54.697l94.846,54.539l0.593,54.535L192.266,109.236L192.266,109.236z"/>
	</g>
	<path fill="#EF6639" d="M460.559,122.873v204.479H424.59V122.873h-69.871V87.591h175.71v35.281H460.559L460.559,122.873z"/>
	<path fill="#EF6639" d="M649.444,197.201c3.083,10.965,3.145,25.391,2.918,27.217l-116.084,34.418
		c0.914,8.672,0.65,5.156,3.388,11.322c2.741,6.166,6.169,11.244,10.277,15.236c4.112,4.002,8.672,6.973,13.702,8.908
		c5.021,1.945,10.368,2.93,15.755,2.918c7.532,0,14.443-1.26,20.724-3.771c6.281-2.51,12.385-6.053,18.324-10.613l20.892,22.6
		c-7.993,7.541-16.896,13.363-26.716,17.473c-9.821,4.107-21.576,6.16-35.281,6.16c-10.504,0-20.493-2.053-29.968-6.16
		c-9.479-4.109-17.756-10.162-24.831-18.156c-7.083-7.988-12.681-17.809-16.785-29.457c-4.112-11.645-6.166-24.889-6.166-39.73
		c0-15.303,1.938-28.773,5.824-40.418c3.881-11.643,9.248-21.407,16.097-29.284c6.849-7.878,15.125-13.875,24.831-17.982
		c9.709-4.112,20.382-6.166,32.026-6.166c12.788,0,23.917,2.396,33.396,7.194c9.475,4.791,17.356,11.303,23.633,19.521
		C641.681,176.65,646.365,186.244,649.444,197.201L649.444,197.201z M615.714,205.334c-0.457-6.17-4.717-13.715-8.228-18.406
		c-3.223-4.311-7.845-7.787-12.846-9.763c-5.252-2.074-12.385-2.959-18.666-2.68c-11.784,0.511-24.884,4.585-31.499,13.677
		c-6.619,9.092-8.438,24.383-8.199,40.875L615.714,205.334z M779.773,325.307V223.574c0-18.27-3.252-31.053-9.759-38.363
		c-6.511-7.301-15.587-10.96-27.235-10.96c-11.874,0-21.003,3.996-27.403,11.99c-6.388,7.988-9.586,19.291-9.586,33.914v105.148
		h-35.277V145.481h35.277v17.126c4.569-6.623,10.903-11.764,19.007-15.414c8.108-3.651,16.842-5.479,26.206-5.479
		c21.003,0,36.936,6.738,47.781,20.209c10.841,13.472,16.271,33.565,16.271,60.286v103.094h-35.281V325.307z M959.949,278.031
		c0,10.047-1.885,18.439-5.652,25.178c-3.766,6.734-8.732,12.154-14.895,16.27c-6.17,4.107-13.306,7.076-21.411,8.902
		c-8.104,1.824-16.616,2.738-25.518,2.738c-12.327,0-24.601-2.166-36.825-6.508c-12.212-4.338-22.884-9.816-32.021-16.443
		l16.097-26.715c8.45,5.943,17.188,10.393,26.206,13.363c9.018,2.967,17.756,4.449,26.202,4.449
		c21.921,0,32.877-6.623,32.877-19.867c0-6.85-3.708-12.33-11.129-16.439c-7.421-4.107-17.641-8.68-30.651-13.701
		c-9.594-3.654-17.756-7.363-24.493-11.129c-6.738-3.77-12.216-7.82-16.439-12.162c-4.227-4.338-7.252-9.191-9.08-14.559
		c-1.823-5.367-2.737-11.586-2.737-18.66c0-7.994,1.481-15.073,4.453-21.243c2.906-6.088,7.252-11.381,12.673-15.41
		c5.474-4.111,11.985-7.19,19.521-9.248c7.532-2.058,15.755-3.083,24.662-3.083c11.414,0,22.436,1.827,33.051,5.479
		c10.614,3.654,19.921,8.454,27.917,14.385l-15.414,27.062c-7.305-5.252-14.726-9.133-22.262-11.648
		c-7.536-2.506-15.641-3.766-24.321-3.766s-14.961,1.54-18.838,4.622c-3.881,3.088-5.824,7.027-5.824,11.818
		c0,2.283,0.457,4.395,1.371,6.338c0.914,1.938,2.625,3.939,5.136,5.992c2.511,2.059,5.882,4.17,10.109,6.338
		c4.223,2.17,9.759,4.627,16.607,7.363c10.051,3.883,18.838,7.59,26.378,11.135c7.532,3.539,13.87,7.531,19.01,11.984
		c5.137,4.453,8.961,9.648,11.473,15.588c2.51,5.93,3.77,13.129,3.77,21.574v0.004H959.949z M1124.02,236.59
		c0,14.842-2.055,28.135-6.162,39.898c-4.115,11.76-9.82,21.691-17.129,29.799c-7.307,8.109-15.867,14.273-25.688,18.498
		c-9.82,4.227-20.551,6.334-32.195,6.334c-11.416,0-21.924-2.227-31.51-6.68c-9.59-4.455-17.926-10.785-25.008-19.008
		c-7.076-8.225-12.611-18.041-16.607-29.457c-3.998-11.418-5.994-24.205-5.994-38.365c0-14.611,2.055-27.74,6.162-39.385
		c4.111-11.646,9.764-21.521,16.953-29.629c7.195-8.104,15.645-14.273,25.35-18.497c9.701-4.223,20.266-6.334,31.68-6.334
		c11.418,0,22.041,2.227,31.857,6.68c9.713,4.376,18.402,10.734,25.514,18.666c7.195,7.989,12.789,17.751,16.785,29.285
		C1122.027,209.922,1124.02,222.656,1124.02,236.59L1124.02,236.59z M1088.4,237.609c0-18.492-4.053-33.164-12.158-44.01
		c-8.107-10.846-19.357-16.27-33.742-16.27c-13.471,0-24.031,5.424-31.68,16.27c-7.65,10.846-11.475,25.172-11.475,42.99
		c0,19.863,4.107,34.988,12.332,45.377c8.219,10.389,19.064,15.586,32.539,15.586c6.619,0,12.668-1.596,18.156-4.789
		c5.473-3.203,10.156-7.484,14.039-12.852c3.885-5.365,6.852-11.701,8.906-19.006C1087.371,253.596,1088.4,245.834,1088.4,237.609
		L1088.4,237.609z M1237.736,184.865c-3.807-2.025-7.828-3.635-11.984-4.795c-4.107-1.144-9.139-1.712-15.068-1.712
		c-11.191,0-19.867,3.882-26.033,11.648c-6.166,7.762-9.248,19.291-9.248,34.59v102.756h-35.281V147.535h35.281v17.126
		c4.107-5.943,9.762-10.903,16.953-14.903c7.195-3.997,15.24-5.993,24.148-5.993c7.305,0,13.307,0.63,17.977,1.885
		c4.686,1.252,8.85,3.137,12.51,5.651L1237.736,184.865L1237.736,184.865z"/>
	<path fill="#A6A7A9" d="M1296.992,122.873v62.68h68.852v35.273h-68.852v106.525h-35.963V87.591h154.48v35.281H1296.992z
		 M1421.354,327.352V96.156l35.281-18.501v249.697H1421.354L1421.354,327.352z M1636.795,236.59c0,14.838-2.059,28.135-6.17,39.898
		c-4.107,11.76-9.816,21.691-17.121,29.799c-7.307,8.109-15.871,14.273-25.691,18.498c-9.82,4.227-20.555,6.334-32.199,6.334
		c-11.412,0-21.916-2.227-31.512-6.68c-9.584-4.455-17.924-10.785-25.004-19.008c-7.078-8.225-12.613-18.041-16.607-29.457
		c-3.996-11.418-6-24.205-6-38.365c0-14.611,2.059-27.74,6.17-39.385c4.111-11.646,9.762-21.521,16.953-29.629
		c7.193-8.104,15.641-14.273,25.35-18.497c9.705-4.223,20.262-6.334,31.68-6.334s22.037,2.227,31.854,6.68
		c9.713,4.376,18.406,10.734,25.518,18.666c7.195,7.989,12.787,17.751,16.785,29.285c3.992,11.527,5.992,24.262,5.992,38.195
		H1636.795L1636.795,236.59z M1601.168,237.609c0-18.492-4.051-33.164-12.154-44.01c-8.107-10.846-19.354-16.27-33.742-16.27
		c-13.471,0-24.037,5.424-31.684,16.27s-11.475,25.172-11.475,42.99c0,19.863,4.111,34.988,12.334,45.377
		c8.217,10.389,19.066,15.586,32.541,15.586c6.619,0,12.672-1.596,18.15-4.789c5.482-3.203,10.162-7.484,14.043-12.852
		c3.883-5.365,6.85-11.701,8.908-19.006C1600.146,253.596,1601.168,245.834,1601.168,237.609L1601.168,237.609z M1810.789,327.352
		h-30.137l-24.32-90.762c-1.863-7.002-3.631-14.027-5.305-21.07c-1.717-7.189-3.029-12.961-3.939-17.295
		c-1.256,5.832-2.564,11.656-3.939,17.469c-1.662,7.107-3.436,14.184-5.309,21.234l-23.979,90.43h-30.141l-49.326-179.832h34.941
		l21.232,87.347c1.898,7.145,3.609,14.344,5.137,21.576c1.598,7.539,2.857,13.475,3.771,17.813l4.453-17.809
		c1.793-7.199,3.625-14.395,5.479-21.58l23.975-87.347h28.428l24.324,87.693c1.836,7.117,3.602,14.254,5.307,21.402
		c1.711,7.191,3.139,13.072,4.279,17.641c1.141-4.568,2.457-10.561,3.939-17.982c1.428-7.186,3.086-14.322,4.967-21.406
		l21.234-87.347h34.939L1810.789,327.352L1810.789,327.352z"/>
</g>
</svg>
